<svg xmlns="http://www.w3.org/2000/svg" xmlns:xlink="http://www.w3.org/1999/xlink" width="265" zoomAndPan="magnify" viewBox="0 0 198.75 32.249999" height="43" preserveAspectRatio="xMidYMid meet" version="1.0"><defs><g/><clipPath id="275285d616"><path d="M 2.765625 0.199219 L 21.820312 0.199219 L 21.820312 19 L 2.765625 19 Z M 2.765625 0.199219 " clip-rule="nonzero"/></clipPath></defs><g clip-path="url(#275285d616)"><path fill="#ffffff" d="M 21.125 12.703125 C 20.925781 12.703125 20.769531 12.546875 20.769531 12.347656 L 20.769531 1.445312 L 14.734375 7.480469 C 14.597656 7.617188 14.371094 7.617188 14.234375 7.480469 C 14.09375 7.339844 14.09375 7.117188 14.234375 6.976562 L 20.871094 0.335938 C 20.972656 0.234375 21.125 0.207031 21.257812 0.261719 C 21.390625 0.316406 21.480469 0.445312 21.480469 0.589844 L 21.480469 12.347656 C 21.480469 12.546875 21.320312 12.703125 21.125 12.703125 Z M 3.167969 18.898438 C 2.972656 18.898438 2.8125 18.742188 2.8125 18.542969 L 2.8125 6.152344 C 2.8125 6.011719 2.898438 5.878906 3.03125 5.824219 C 3.164062 5.769531 3.316406 5.800781 3.417969 5.902344 L 9.613281 12.097656 C 9.753906 12.234375 9.753906 12.460938 9.613281 12.601562 C 9.476562 12.738281 9.25 12.738281 9.113281 12.601562 L 3.523438 7.011719 L 3.523438 18.542969 C 3.523438 18.742188 3.363281 18.898438 3.167969 18.898438 Z M 21.125 18.898438 C 21.03125 18.898438 20.941406 18.863281 20.871094 18.796875 L 2.917969 0.839844 C 2.777344 0.703125 2.777344 0.476562 2.917969 0.335938 C 3.054688 0.199219 3.28125 0.199219 3.417969 0.335938 L 21.375 18.292969 C 21.511719 18.429688 21.511719 18.65625 21.375 18.796875 C 21.304688 18.863281 21.214844 18.898438 21.125 18.898438 " fill-opacity="1" fill-rule="nonzero"/></g><g fill="#ffffff" fill-opacity="1"><g transform="translate(28.577539, 16.808908)"><g><path d="M 3.472656 0 C 3.652344 0 3.746094 -0.09375 3.746094 -0.273438 L 3.746094 -9.984375 C 3.746094 -10.164062 3.652344 -10.257812 3.472656 -10.257812 L 1.289062 -10.257812 C 1.109375 -10.257812 1.015625 -10.164062 1.015625 -9.984375 L 1.015625 -0.273438 C 1.015625 -0.09375 1.109375 0 1.289062 0 Z M 3.472656 0 "/></g></g></g><g fill="#ffffff" fill-opacity="1"><g transform="translate(44.283604, 16.808908)"><g><path d="M 4.722656 0 C 8.613281 0 10.3125 -1.917969 10.3125 -5.117188 C 10.3125 -8.367188 8.5625 -10.257812 4.722656 -10.257812 L 1.289062 -10.257812 C 1.109375 -10.257812 1.015625 -10.164062 1.015625 -9.984375 L 1.015625 -0.273438 C 1.015625 -0.09375 1.109375 0 1.289062 0 Z M 3.773438 -7.933594 L 4.734375 -7.933594 C 6.65625 -7.933594 7.578125 -6.933594 7.578125 -5.15625 C 7.578125 -3.378906 6.65625 -2.324219 4.734375 -2.324219 L 3.773438 -2.324219 Z M 3.773438 -7.933594 "/></g></g></g><g fill="#ffffff" fill-opacity="1"><g transform="translate(66.165753, 16.808908)"><g><path d="M 7.671875 0 C 7.855469 0 7.945312 -0.09375 7.945312 -0.273438 L 7.945312 -2.050781 C 7.945312 -2.230469 7.855469 -2.324219 7.671875 -2.324219 L 3.746094 -2.324219 L 3.746094 -3.527344 L 7.140625 -3.527344 C 7.320312 -3.527344 7.414062 -3.625 7.414062 -3.800781 L 7.414062 -5.441406 C 7.414062 -5.621094 7.320312 -5.714844 7.140625 -5.714844 L 3.746094 -5.714844 L 3.746094 -7.933594 L 7.671875 -7.933594 C 7.855469 -7.933594 7.945312 -8.027344 7.945312 -8.207031 L 7.945312 -9.984375 C 7.945312 -10.164062 7.855469 -10.257812 7.671875 -10.257812 L 1.289062 -10.257812 C 1.109375 -10.257812 1.015625 -10.164062 1.015625 -9.984375 L 1.015625 -0.273438 C 1.015625 -0.09375 1.109375 0 1.289062 0 Z M 7.671875 0 "/></g></g></g><g fill="#ffffff" fill-opacity="1"><g transform="translate(85.837864, 16.808908)"><g><path d="M 6.15625 0.273438 C 8.128906 0.273438 9.710938 -0.46875 10.679688 -1.695312 C 10.777344 -1.816406 10.738281 -1.929688 10.585938 -2.035156 L 8.78125 -3.238281 C 8.640625 -3.339844 8.519531 -3.3125 8.414062 -3.171875 C 7.90625 -2.558594 7.125 -2.191406 6.15625 -2.191406 C 4.460938 -2.191406 3.339844 -3.3125 3.339844 -5.128906 C 3.339844 -6.945312 4.460938 -8.066406 6.15625 -8.066406 C 7.125 -8.066406 7.90625 -7.699219 8.414062 -7.085938 C 8.519531 -6.945312 8.640625 -6.917969 8.78125 -7.019531 L 10.585938 -8.222656 C 10.738281 -8.328125 10.765625 -8.453125 10.652344 -8.589844 C 9.671875 -9.804688 8.09375 -10.53125 6.15625 -10.53125 C 2.816406 -10.53125 0.601562 -8.429688 0.601562 -5.128906 C 0.601562 -1.828125 2.816406 0.273438 6.15625 0.273438 Z M 6.15625 0.273438 "/></g></g></g><g fill="#ffffff" fill-opacity="1"><g transform="translate(107.953705, 16.808908)"><g><path d="M 6.15625 0.273438 C 9.503906 0.273438 11.734375 -1.828125 11.734375 -5.128906 C 11.734375 -8.429688 9.503906 -10.53125 6.15625 -10.53125 C 2.816406 -10.53125 0.601562 -8.429688 0.601562 -5.128906 C 0.601562 -1.828125 2.816406 0.273438 6.15625 0.273438 Z M 6.15625 -2.191406 C 4.460938 -2.191406 3.339844 -3.3125 3.339844 -5.128906 C 3.339844 -6.945312 4.460938 -8.066406 6.15625 -8.066406 C 7.867188 -8.066406 9.003906 -6.945312 9.003906 -5.128906 C 9.003906 -3.3125 7.867188 -2.191406 6.15625 -2.191406 Z M 6.15625 -2.191406 "/></g></g></g><g fill="#ffffff" fill-opacity="1"><g transform="translate(131.244671, 16.808908)"><g><path d="M 4.722656 0 C 8.613281 0 10.3125 -1.917969 10.3125 -5.117188 C 10.3125 -8.367188 8.5625 -10.257812 4.722656 -10.257812 L 1.289062 -10.257812 C 1.109375 -10.257812 1.015625 -10.164062 1.015625 -9.984375 L 1.015625 -0.273438 C 1.015625 -0.09375 1.109375 0 1.289062 0 Z M 3.773438 -7.933594 L 4.734375 -7.933594 C 6.65625 -7.933594 7.578125 -6.933594 7.578125 -5.15625 C 7.578125 -3.378906 6.65625 -2.324219 4.734375 -2.324219 L 3.773438 -2.324219 Z M 3.773438 -7.933594 "/></g></g></g><g fill="#ffffff" fill-opacity="1"><g transform="translate(153.126823, 16.808908)"><g><path d="M 7.671875 0 C 7.855469 0 7.945312 -0.09375 7.945312 -0.273438 L 7.945312 -2.050781 C 7.945312 -2.230469 7.855469 -2.324219 7.671875 -2.324219 L 3.746094 -2.324219 L 3.746094 -3.527344 L 7.140625 -3.527344 C 7.320312 -3.527344 7.414062 -3.625 7.414062 -3.800781 L 7.414062 -5.441406 C 7.414062 -5.621094 7.320312 -5.714844 7.140625 -5.714844 L 3.746094 -5.714844 L 3.746094 -7.933594 L 7.671875 -7.933594 C 7.855469 -7.933594 7.945312 -8.027344 7.945312 -8.207031 L 7.945312 -9.984375 C 7.945312 -10.164062 7.855469 -10.257812 7.671875 -10.257812 L 1.289062 -10.257812 C 1.109375 -10.257812 1.015625 -10.164062 1.015625 -9.984375 L 1.015625 -0.273438 C 1.015625 -0.09375 1.109375 0 1.289062 0 Z M 7.671875 0 "/></g></g></g><g fill="#ffffff" fill-opacity="1"><g transform="translate(172.798939, 16.808908)"><g><path d="M 4.1875 0.273438 C 6.128906 0.273438 8.207031 -0.480469 8.207031 -2.871094 C 8.207031 -4.773438 6.878906 -5.597656 5.664062 -6.15625 C 4.449219 -6.71875 3.484375 -7.019531 3.484375 -7.632812 C 3.484375 -8.09375 3.941406 -8.246094 4.566406 -8.246094 C 5.183594 -8.246094 5.964844 -8.09375 6.632812 -7.867188 C 6.796875 -7.808594 6.917969 -7.878906 6.972656 -8.039062 L 7.464844 -9.722656 C 7.519531 -9.902344 7.464844 -10.011719 7.292969 -10.0625 C 6.359375 -10.351562 5.261719 -10.53125 4.472656 -10.53125 C 2.558594 -10.53125 0.707031 -9.683594 0.707031 -7.441406 C 0.707031 -5.835938 1.738281 -5.035156 2.925781 -4.421875 C 4.128906 -3.800781 5.414062 -3.433594 5.414062 -2.75 C 5.414062 -2.230469 4.910156 -2.035156 4.199219 -2.035156 C 3.460938 -2.035156 2.476562 -2.242188 1.601562 -2.53125 C 1.4375 -2.585938 1.316406 -2.542969 1.253906 -2.363281 L 0.667969 -0.574219 C 0.613281 -0.394531 0.679688 -0.289062 0.863281 -0.234375 C 2.105469 0.121094 3.171875 0.273438 4.1875 0.273438 Z M 4.1875 0.273438 "/></g></g></g><g fill="#ffffff" fill-opacity="1"><g transform="translate(63.589809, 27.493897)"><g><path d="M 0.773438 0 L 1.191406 0 L 1.191406 -2.132812 L 3.234375 -2.132812 L 3.234375 -2.515625 L 1.191406 -2.515625 L 1.191406 -4.398438 L 3.414062 -4.398438 L 3.414062 -4.789062 L 0.773438 -4.789062 Z M 0.773438 0 "/></g></g></g><g fill="#ffffff" fill-opacity="1"><g transform="translate(70.157252, 27.493897)"><g><path d="M 0.773438 0 L 1.191406 0 L 1.191406 -1.800781 L 2.429688 -1.800781 L 3.714844 0 L 4.214844 0 L 2.914062 -1.832031 C 3.667969 -1.964844 4.140625 -2.503906 4.140625 -3.296875 C 4.140625 -4.207031 3.507812 -4.789062 2.542969 -4.789062 L 0.773438 -4.789062 Z M 1.191406 -2.195312 L 1.191406 -4.390625 L 2.503906 -4.390625 C 3.261719 -4.390625 3.714844 -3.976562 3.714844 -3.296875 C 3.714844 -2.613281 3.261719 -2.195312 2.503906 -2.195312 Z M 1.191406 -2.195312 "/></g></g></g><g fill="#ffffff" fill-opacity="1"><g transform="translate(77.572989, 27.493897)"><g><path d="M 2.90625 0.0898438 C 4.371094 0.0898438 5.378906 -0.929688 5.378906 -2.394531 C 5.378906 -3.859375 4.371094 -4.878906 2.90625 -4.878906 C 1.449219 -4.878906 0.4375 -3.859375 0.4375 -2.394531 C 0.4375 -0.929688 1.449219 0.0898438 2.90625 0.0898438 Z M 0.863281 -2.394531 C 0.863281 -3.625 1.695312 -4.460938 2.90625 -4.460938 C 4.125 -4.460938 4.960938 -3.625 4.960938 -2.394531 C 4.960938 -1.167969 4.125 -0.328125 2.90625 -0.328125 C 1.695312 -0.328125 0.863281 -1.167969 0.863281 -2.394531 Z M 0.863281 -2.394531 "/></g></g></g><g fill="#ffffff" fill-opacity="1"><g transform="translate(86.124354, 27.493897)"><g><path d="M 0.773438 0 L 1.183594 0 L 1.183594 -4.078125 L 4.097656 0 L 4.488281 0 L 4.488281 -4.789062 L 4.078125 -4.789062 L 4.078125 -0.71875 L 1.164062 -4.789062 L 0.773438 -4.789062 Z M 0.773438 0 "/></g></g></g><g fill="#ffffff" fill-opacity="1"><g transform="translate(94.121584, 27.493897)"><g><path d="M 1.910156 0 L 2.320312 0 L 2.320312 -4.390625 L 3.976562 -4.390625 L 3.976562 -4.789062 L 0.261719 -4.789062 L 0.261719 -4.390625 L 1.910156 -4.390625 Z M 1.910156 0 "/></g></g></g><g fill="#ffffff" fill-opacity="1"><g transform="translate(101.092653, 27.493897)"><g><path d="M 0.773438 0 L 3.667969 0 L 3.667969 -0.390625 L 1.191406 -0.390625 L 1.191406 -2.25 L 3.414062 -2.25 L 3.414062 -2.632812 L 1.191406 -2.632812 L 1.191406 -4.398438 L 3.589844 -4.398438 L 3.589844 -4.789062 L 0.773438 -4.789062 Z M 0.773438 0 "/></g></g></g><g fill="#ffffff" fill-opacity="1"><g transform="translate(107.995308, 27.493897)"><g><path d="M 0.773438 0 L 1.183594 0 L 1.183594 -4.078125 L 4.097656 0 L 4.488281 0 L 4.488281 -4.789062 L 4.078125 -4.789062 L 4.078125 -0.71875 L 1.164062 -4.789062 L 0.773438 -4.789062 Z M 0.773438 0 "/></g></g></g><g fill="#ffffff" fill-opacity="1"><g transform="translate(115.99254, 27.493897)"><g><path d="M 0.773438 0 L 2.285156 0 C 3.808594 0 4.773438 -0.949219 4.773438 -2.394531 C 4.773438 -3.835938 3.808594 -4.789062 2.285156 -4.789062 L 0.773438 -4.789062 Z M 1.191406 -0.398438 L 1.191406 -4.390625 L 2.269531 -4.390625 C 3.550781 -4.390625 4.351562 -3.613281 4.351562 -2.394531 C 4.351562 -1.175781 3.558594 -0.398438 2.285156 -0.398438 Z M 1.191406 -0.398438 "/></g></g></g><g fill="#ffffff" fill-opacity="1"><g transform="translate(123.941884, 27.493897)"><g/></g></g><g fill="#ffffff" fill-opacity="1"><g transform="translate(128.511723, 27.493897)"><g><path d="M 0.773438 0 L 3.667969 0 L 3.667969 -0.390625 L 1.191406 -0.390625 L 1.191406 -2.25 L 3.414062 -2.25 L 3.414062 -2.632812 L 1.191406 -2.632812 L 1.191406 -4.398438 L 3.589844 -4.398438 L 3.589844 -4.789062 L 0.773438 -4.789062 Z M 0.773438 0 "/></g></g></g><g fill="#ffffff" fill-opacity="1"><g transform="translate(135.414378, 27.493897)"><g><path d="M 0.773438 0 L 1.183594 0 L 1.183594 -4.078125 L 4.097656 0 L 4.488281 0 L 4.488281 -4.789062 L 4.078125 -4.789062 L 4.078125 -0.71875 L 1.164062 -4.789062 L 0.773438 -4.789062 Z M 0.773438 0 "/></g></g></g><g fill="#ffffff" fill-opacity="1"><g transform="translate(143.41161, 27.493897)"><g><path d="M 2.859375 0.0898438 C 4.316406 0.0898438 5.289062 -1 5.273438 -2.515625 L 2.710938 -2.515625 L 2.710938 -2.121094 L 4.828125 -2.121094 C 4.742188 -1.074219 3.980469 -0.328125 2.867188 -0.328125 C 1.683594 -0.328125 0.863281 -1.167969 0.863281 -2.394531 C 0.863281 -3.617188 1.675781 -4.460938 2.867188 -4.460938 C 3.722656 -4.460938 4.378906 -4.023438 4.679688 -3.3125 L 5.128906 -3.3125 C 4.824219 -4.242188 3.953125 -4.878906 2.847656 -4.878906 C 1.445312 -4.878906 0.4375 -3.84375 0.4375 -2.394531 C 0.4375 -0.945312 1.445312 0.0898438 2.859375 0.0898438 Z M 2.859375 0.0898438 "/></g></g></g><g fill="#ffffff" fill-opacity="1"><g transform="translate(151.839835, 27.493897)"><g><path d="M 0.773438 0 L 1.191406 0 L 1.191406 -4.789062 L 0.773438 -4.789062 Z M 0.773438 0 "/></g></g></g><g fill="#ffffff" fill-opacity="1"><g transform="translate(156.539661, 27.493897)"><g><path d="M 0.773438 0 L 1.183594 0 L 1.183594 -4.078125 L 4.097656 0 L 4.488281 0 L 4.488281 -4.789062 L 4.078125 -4.789062 L 4.078125 -0.71875 L 1.164062 -4.789062 L 0.773438 -4.789062 Z M 0.773438 0 "/></g></g></g><g fill="#ffffff" fill-opacity="1"><g transform="translate(164.536893, 27.493897)"><g><path d="M 0.773438 0 L 3.667969 0 L 3.667969 -0.390625 L 1.191406 -0.390625 L 1.191406 -2.25 L 3.414062 -2.25 L 3.414062 -2.632812 L 1.191406 -2.632812 L 1.191406 -4.398438 L 3.589844 -4.398438 L 3.589844 -4.789062 L 0.773438 -4.789062 Z M 0.773438 0 "/></g></g></g><g fill="#ffffff" fill-opacity="1"><g transform="translate(171.439548, 27.493897)"><g><path d="M 0.773438 0 L 3.667969 0 L 3.667969 -0.390625 L 1.191406 -0.390625 L 1.191406 -2.25 L 3.414062 -2.25 L 3.414062 -2.632812 L 1.191406 -2.632812 L 1.191406 -4.398438 L 3.589844 -4.398438 L 3.589844 -4.789062 L 0.773438 -4.789062 Z M 0.773438 0 "/></g></g></g><g fill="#ffffff" fill-opacity="1"><g transform="translate(178.342203, 27.493897)"><g><path d="M 0.773438 0 L 1.191406 0 L 1.191406 -1.800781 L 2.429688 -1.800781 L 3.714844 0 L 4.214844 0 L 2.914062 -1.832031 C 3.667969 -1.964844 4.140625 -2.503906 4.140625 -3.296875 C 4.140625 -4.207031 3.507812 -4.789062 2.542969 -4.789062 L 0.773438 -4.789062 Z M 1.191406 -2.195312 L 1.191406 -4.390625 L 2.503906 -4.390625 C 3.261719 -4.390625 3.714844 -3.976562 3.714844 -3.296875 C 3.714844 -2.613281 3.261719 -2.195312 2.503906 -2.195312 Z M 1.191406 -2.195312 "/></g></g></g></svg>